%FSLAX35Y35*%
%MOIN*%
G04 EasyPC Gerber Version 18.0.9 Build 3640 *
%ADD19C,0.00500*%
%ADD18C,0.10000*%
X0Y0D02*
D02*
D18*
X12061Y15388D03*
Y98065D03*
X13750Y44565D03*
Y64250D03*
X38750Y30750D03*
Y63250D03*
X53750Y27250D03*
Y59750D03*
Y70750D03*
Y103250D03*
X69750Y27250D03*
Y59750D03*
X78486Y98065D03*
X85750Y27250D03*
Y67250D03*
X108565Y13750D03*
X110750Y65750D03*
Y75750D03*
Y85750D03*
Y95750D03*
X128250Y13750D03*
X140750Y65750D03*
Y75750D03*
Y85750D03*
Y95750D03*
X147935Y13750D03*
D02*
D19*
X22061Y21325D02*
X23624Y25075D01*
X25186Y21325*
X22686Y22888D02*
X24561D01*
X22061Y104002D02*
X23624Y107752D01*
X25186Y104002*
X22686Y105565D02*
X24561D01*
X26875Y51128D02*
X26563Y50815D01*
X25937Y50502*
X25000*
X24375Y50815*
X24063Y51128*
X23750Y51752*
Y53002*
X24063Y53628*
X24375Y53940*
X25000Y54252*
X25937*
X26563Y53940*
X26875Y53628*
Y70813D02*
X26563Y70500D01*
X25937Y70187*
X25000*
X24375Y70500*
X24063Y70813*
X23750Y71437*
Y72687*
X24063Y73313*
X24375Y73625*
X25000Y73937*
X25937*
X26563Y73625*
X26875Y73313*
X50937Y38563D02*
X51563Y38250D01*
X51875Y37625*
X51563Y37000*
X50937Y36687*
X48750*
Y40437*
X50937*
X51563Y40125*
X51875Y39500*
X51563Y38875*
X50937Y38563*
X48750*
X50937Y71063D02*
X51563Y70750D01*
X51875Y70125*
X51563Y69500*
X50937Y69187*
X48750*
Y72937*
X50937*
X51563Y72625*
X51875Y72000*
X51563Y71375*
X50937Y71063*
X48750*
X65937Y35063D02*
X66563Y34750D01*
X66875Y34125*
X66563Y33500*
X65937Y33187*
X63750*
Y36937*
X65937*
X66563Y36625*
X66875Y36000*
X66563Y35375*
X65937Y35063*
X63750*
X65937Y67563D02*
X66563Y67250D01*
X66875Y66625*
X66563Y66000*
X65937Y65687*
X63750*
Y69437*
X65937*
X66563Y69125*
X66875Y68500*
X66563Y67875*
X65937Y67563*
X63750*
X65937Y78563D02*
X66563Y78250D01*
X66875Y77625*
X66563Y77000*
X65937Y76687*
X63750*
Y80437*
X65937*
X66563Y80125*
X66875Y79500*
X66563Y78875*
X65937Y78563*
X63750*
X65937Y111063D02*
X66563Y110750D01*
X66875Y110125*
X66563Y109500*
X65937Y109187*
X63750*
Y112937*
X65937*
X66563Y112625*
X66875Y112000*
X66563Y111375*
X65937Y111063*
X63750*
X81937Y35063D02*
X82563Y34750D01*
X82875Y34125*
X82563Y33500*
X81937Y33187*
X79750*
Y36937*
X81937*
X82563Y36625*
X82875Y36000*
X82563Y35375*
X81937Y35063*
X79750*
X81937Y67563D02*
X82563Y67250D01*
X82875Y66625*
X82563Y66000*
X81937Y65687*
X79750*
Y69437*
X81937*
X82563Y69125*
X82875Y68500*
X82563Y67875*
X81937Y67563*
X79750*
X88486Y104002D02*
X90049Y107752D01*
X91611Y104002*
X89111Y105565D02*
X90986D01*
X97937Y35063D02*
X98563Y34750D01*
X98875Y34125*
X98563Y33500*
X97937Y33187*
X95750*
Y36937*
X97937*
X98563Y36625*
X98875Y36000*
X98563Y35375*
X97937Y35063*
X95750*
X97937Y75063D02*
X98563Y74750D01*
X98875Y74125*
X98563Y73500*
X97937Y73187*
X95750*
Y76937*
X97937*
X98563Y76625*
X98875Y76000*
X98563Y75375*
X97937Y75063*
X95750*
X121690Y20313D02*
X121378Y20000D01*
X120752Y19687*
X119815*
X119190Y20000*
X118878Y20313*
X118565Y20937*
Y22187*
X118878Y22813*
X119190Y23125*
X119815Y23437*
X120752*
X121378Y23125*
X121690Y22813*
X122937Y73563D02*
X123563Y73250D01*
X123875Y72625*
X123563Y72000*
X122937Y71687*
X120750*
Y75437*
X122937*
X123563Y75125*
X123875Y74500*
X123563Y73875*
X122937Y73563*
X120750*
X122937Y83563D02*
X123563Y83250D01*
X123875Y82625*
X123563Y82000*
X122937Y81687*
X120750*
Y85437*
X122937*
X123563Y85125*
X123875Y84500*
X123563Y83875*
X122937Y83563*
X120750*
X122937Y93563D02*
X123563Y93250D01*
X123875Y92625*
X123563Y92000*
X122937Y91687*
X120750*
Y95437*
X122937*
X123563Y95125*
X123875Y94500*
X123563Y93875*
X122937Y93563*
X120750*
X122937Y103563D02*
X123563Y103250D01*
X123875Y102625*
X123563Y102000*
X122937Y101687*
X120750*
Y105437*
X122937*
X123563Y105125*
X123875Y104500*
X123563Y103875*
X122937Y103563*
X120750*
X141375Y20313D02*
X141063Y20000D01*
X140437Y19687*
X139500*
X138875Y20000*
X138563Y20313*
X138250Y20937*
Y22187*
X138563Y22813*
X138875Y23125*
X139500Y23437*
X140437*
X141063Y23125*
X141375Y22813*
X152937Y73563D02*
X153563Y73250D01*
X153875Y72625*
X153563Y72000*
X152937Y71687*
X150750*
Y75437*
X152937*
X153563Y75125*
X153875Y74500*
X153563Y73875*
X152937Y73563*
X150750*
X152937Y83563D02*
X153563Y83250D01*
X153875Y82625*
X153563Y82000*
X152937Y81687*
X150750*
Y85437*
X152937*
X153563Y85125*
X153875Y84500*
X153563Y83875*
X152937Y83563*
X150750*
X152937Y93563D02*
X153563Y93250D01*
X153875Y92625*
X153563Y92000*
X152937Y91687*
X150750*
Y95437*
X152937*
X153563Y95125*
X153875Y94500*
X153563Y93875*
X152937Y93563*
X150750*
X152937Y103563D02*
X153563Y103250D01*
X153875Y102625*
X153563Y102000*
X152937Y101687*
X150750*
Y105437*
X152937*
X153563Y105125*
X153875Y104500*
X153563Y103875*
X152937Y103563*
X150750*
X161060Y20313D02*
X160748Y20000D01*
X160122Y19687*
X159185*
X158560Y20000*
X158248Y20313*
X157935Y20937*
Y22187*
X158248Y22813*
X158560Y23125*
X159185Y23437*
X160122*
X160748Y23125*
X161060Y22813*
X0Y0D02*
M02*
