G04 EasyPC Gerber Version 20.0.2 Build 4112 *
G04 #@! TF.Part,Single*
G04 #@! TF.FileFunction,Copper,L2,Bot *
%FSLAX35Y35*%
%MOIN*%
G04 #@! TA.AperFunction,ViaPad*
%AMT28*0 Octagon Pad at angle 0*4,1,8,-0.01631,-0.03937,0.01631,-0.03937,0.03937,-0.01631,0.03937,0.01631,0.01631,0.03937,-0.01631,0.03937,-0.03937,0.01631,-0.03937,-0.01631,-0.01631,-0.03937,0*%
%ADD28T28*%
G04 #@! TA.AperFunction,ComponentPad*
%ADD18R,0.07874X0.07874*%
%ADD71R,0.08268X0.08268*%
%ADD23R,0.09843X0.09843*%
%ADD21R,0.11811X0.11811*%
G04 #@! TD.AperFunction*
%ADD16C,0.01575*%
%ADD73C,0.02362*%
%ADD72C,0.02500*%
%ADD29C,0.03937*%
G04 #@! TA.AperFunction,ComponentPad*
%ADD19C,0.07874*%
%ADD20C,0.08268*%
%ADD12C,0.08661*%
%ADD25C,0.09449*%
%ADD70C,0.09843*%
%ADD22C,0.11811*%
G04 #@! TA.AperFunction,WasherPad*
%ADD17C,0.13780*%
X0Y0D02*
D02*
D12*
X26221Y21459D03*
Y133259D03*
X82221Y237759D03*
X118221Y26259D03*
X132221Y188259D03*
Y201759D03*
X136206Y97259D03*
Y112759D03*
X165221Y55759D03*
X167221Y172759D03*
X234721Y225259D03*
X369721Y226759D03*
D02*
D16*
X96221Y140759D02*
Y139259D01*
D02*
D17*
X64276Y215231D03*
X143017Y14444D03*
X375300D03*
D02*
D18*
X197221Y203259D03*
D02*
D19*
X112394Y55259D03*
Y131259D03*
X134048Y55259D03*
Y131259D03*
X197221Y143259D03*
Y153259D03*
Y163259D03*
Y173259D03*
Y183259D03*
Y193259D03*
X227221Y143259D03*
Y153259D03*
Y163259D03*
Y173259D03*
Y183259D03*
Y193259D03*
Y203259D03*
X357894Y109259D03*
Y201259D03*
X358394Y181259D03*
X379548Y109259D03*
Y201259D03*
X380048Y181259D03*
D02*
D70*
X74221Y72759D03*
Y92759D03*
Y144759D03*
Y164759D03*
X126473Y72137D03*
X131473Y147259D03*
D02*
D71*
X26221Y31459D03*
Y143259D03*
X92221Y237759D03*
X108221Y26259D03*
X122221Y188259D03*
Y201759D03*
X126206Y97259D03*
Y112759D03*
X155221Y55759D03*
X157221Y172759D03*
X231221Y110759D03*
X244721Y225259D03*
X340221Y55759D03*
X359721Y226759D03*
D02*
D20*
X201221Y100759D03*
Y110759D03*
X211221Y100759D03*
Y110759D03*
X221221Y100759D03*
Y110759D03*
X231221Y100759D03*
X260221Y95759D03*
Y105759D03*
Y115759D03*
Y125759D03*
Y135759D03*
Y145759D03*
Y155759D03*
Y165759D03*
Y175759D03*
Y185759D03*
Y195759D03*
Y205759D03*
X340221Y65759D03*
Y75759D03*
Y85759D03*
Y95759D03*
Y105759D03*
Y115759D03*
Y125759D03*
Y135759D03*
Y145759D03*
Y155759D03*
Y165759D03*
Y175759D03*
Y185759D03*
Y195759D03*
Y205759D03*
D02*
D21*
X26221Y78259D03*
Y238259D03*
D02*
D22*
Y58574D03*
Y218574D03*
D02*
D23*
X157969Y72137D03*
X162969Y147259D03*
D02*
D25*
X52721Y17759D03*
X53221Y35759D03*
X92721Y17759D03*
X93221Y35759D03*
X367221Y51759D03*
Y91759D03*
X369221Y127963D03*
Y153554D03*
D02*
D28*
X50221Y134259D03*
X64221Y186259D03*
X85221Y92759D03*
X89221Y114259D03*
X93721Y163759D03*
X96221Y140759D03*
X98221Y201259D03*
X99721Y60759D03*
X100221Y129546D03*
X107001Y187759D03*
X107721Y112759D03*
X114221Y97259D03*
X117221Y149688D03*
X119721Y45259D03*
X134221Y43759D03*
X135141Y86759D03*
X143221Y180259D03*
X148221Y160259D03*
X154111Y112448D03*
X161350Y99759D03*
X161600Y221027D03*
X166721Y131169D03*
X171209Y70759D03*
X178822Y146769D03*
X179821Y221027D03*
X194173Y124180D03*
X200039Y222774D03*
X221221Y121559D03*
X236721Y143259D03*
X238721Y172759D03*
X259721Y224259D03*
X270927Y126800D03*
X276169Y137284D03*
X277542Y41759D03*
Y103759D03*
X289024Y86239D03*
X298883Y96848D03*
Y118688D03*
X311613Y81622D03*
X327338Y235130D03*
X327721Y65759D03*
X340221Y237259D03*
X356417Y92854D03*
X379548Y83369D03*
X379721Y238759D03*
D02*
D29*
X13221Y22759D02*
Y65759D01*
Y106957*
Y110759*
Y114570*
Y139259*
Y214759*
X17721Y219259*
X25536*
X26221Y218574*
X17078Y110759D02*
X17032D01*
X13221Y114570*
X17078Y110759D02*
X17023D01*
X13221Y106957*
X17078Y110759D02*
X13221D01*
X26221Y21459D02*
X14521D01*
X13221Y22759*
X26221Y31459D02*
X36921D01*
X41221Y35759*
Y55259*
X26221Y58574D02*
X20406D01*
X13221Y65759*
X26221Y133259D02*
X19221D01*
X13221Y139259*
X26221Y143259D02*
X36721D01*
X44221Y150759*
Y164759*
X26221Y238259D02*
X40166D01*
X44221*
X41221Y55259D02*
Y72759D01*
Y74259*
X37721Y77759*
X26721*
X26221Y78259*
X44221Y164759D02*
Y186259D01*
Y233881*
Y234701*
X47779Y238259*
X44221Y233881D02*
Y234204D01*
X40166Y238259*
X44221Y233881D02*
Y238259D01*
X47779*
X81721*
X82221Y237759*
X50221Y134259D02*
Y131759D01*
X29221Y110759*
X17078*
X52721Y17759D02*
X41622D01*
X34721Y10858*
X19221*
X13221Y16858*
Y22759*
X53221Y35759D02*
Y43259D01*
X41221Y55259*
X64221Y186259D02*
X44221D01*
X74221Y72759D02*
X41221D01*
X74221Y144759D02*
X81221Y151759D01*
X74221Y164759D02*
X44221D01*
X81221Y151759D02*
Y151259D01*
X93721Y163759*
X85221Y92759D02*
X74221D01*
X92221Y237759D02*
X102568D01*
X112068Y247259*
X270221*
X92721Y17759D02*
Y27259D01*
Y35259*
X93221Y35759*
X96221Y139259D02*
X91721Y134759D01*
Y124928*
X99721Y116928*
Y60759*
X96221Y140759D02*
Y146787D01*
X109307Y159873*
Y173227*
X104814Y177720*
X90836*
X85095Y183461*
Y209794*
X96328Y221027*
X161600*
X108221Y26259D02*
Y27259D01*
X92721*
X117221Y149688D02*
Y154259D01*
X143221Y180259*
X126473Y72137D02*
X135844D01*
X141857Y66123*
X126473Y72137D02*
Y78091D01*
X135141Y86759*
X131473Y147259D02*
X142221D01*
X143971Y149009*
X134048Y131259D02*
X127221D01*
X117221Y141259*
Y149688*
X134048Y131259D02*
X155721D01*
X134221Y43759D02*
Y55085D01*
X134048Y55259*
X143971Y149009D02*
X147721Y152759D01*
X152221*
X153221Y153759*
X147721Y152759D02*
Y152161D01*
X152172Y147710*
X147721Y152759D02*
X148221Y153259D01*
Y160259*
X152172Y147710D02*
X151721Y147259D01*
X144221*
X143971Y147509*
Y149009*
X153221Y153759D02*
Y148759D01*
X152172Y147710*
X155221Y55759D02*
X152221D01*
X141857Y66123*
X155721Y131259D02*
X162721Y138259D01*
Y147011*
X162969Y147259*
X157221Y172759D02*
Y157759D01*
X153221Y153759*
X157969Y72137D02*
X171209D01*
Y70759*
X166721Y131169D02*
X155811D01*
X155721Y131259*
X171209Y70759D02*
Y115770D01*
X155721Y131259*
X179821Y221027D02*
Y224396D01*
X186435Y231011*
X206469*
X212221Y225259*
X182442Y142421D02*
X178822Y146041D01*
Y146769*
X197221Y143259D02*
X188432D01*
Y146769*
X178822*
X211221Y100759D02*
Y94801D01*
X206654Y90233*
X195671*
X188183Y97721*
X221221Y100759D02*
X211221D01*
X221221Y110759D02*
Y121559D01*
Y110759D02*
Y100759D01*
X227221Y203259D02*
X240221D01*
X244971Y208009*
X231221Y100759D02*
Y85846D01*
X224750Y79375*
X191552*
X231221Y100759D02*
Y78894D01*
X236107Y74009*
X280038Y74133*
X289024Y83119*
Y86239*
X234721Y225259D02*
X212221D01*
X244971Y208009D02*
X245221Y208259D01*
Y224759*
X244721Y225259*
X259721Y224259D02*
Y220259D01*
X255721Y216259*
X253221*
X244971Y208009*
X260221Y115759D02*
X276668D01*
X290168Y129259*
Y227312*
X270221Y247259*
X311613Y81622D02*
X321348D01*
X325485Y85759*
X340221*
Y65759D02*
X360721D01*
X367221Y59259*
Y51759*
X340221Y65759D02*
X327721D01*
X340221Y205759D02*
Y237259D01*
X357894Y201259D02*
Y219259D01*
Y224932*
X359721Y226759*
X358394Y181259D02*
Y200759D01*
X357894Y201259*
X359721Y226759D02*
Y241259D01*
X353721Y247259*
X270221*
X379548Y109259D02*
Y83369D01*
Y109259D02*
Y148759D01*
Y148932*
X375221Y153259*
X369517*
X369221Y153554*
X379548Y201259D02*
Y220759D01*
Y222432*
X375721Y226259*
X370221*
X369721Y226759*
X379721Y238759D02*
Y220585D01*
X379548Y220759*
X380048Y181259D02*
Y200759D01*
X379548Y201259*
X380048Y181259D02*
Y149259D01*
X379548Y148759*
D02*
D72*
X89221Y114259D02*
X83221Y120259D01*
Y150259*
X82721*
X81221Y151759*
X188183Y97721D02*
Y119063D01*
X186810Y120435*
Y131169*
X189181Y133540*
X200039*
X202535Y131044*
Y119811*
X201162Y118439*
Y110818*
X201221Y110759*
X191552Y79375D02*
X182442Y88486D01*
Y142421*
D02*
D73*
X98221Y201259D02*
X121721D01*
X122221Y201759*
X100221Y129546D02*
X106312D01*
Y131259*
X112394*
X107001Y187759D02*
X121721D01*
X122221Y188259*
X107721Y112759D02*
X126206D01*
X114221Y97259D02*
X126206D01*
X118221Y26259D02*
X121213D01*
X127279Y32324*
X262042*
X271476Y41759*
X277542*
X119721Y45259D02*
X115894D01*
X112394Y48759*
Y55259*
X132221Y188259D02*
X165721D01*
X182221Y171759*
Y157759*
X186721Y153259*
X197221*
X132221Y201759D02*
X161149D01*
X173581Y189327*
Y189259*
X179081Y183759*
X196721*
X197221Y183259*
X154111Y112448D02*
X136516D01*
X136206Y112759*
X161350Y99759D02*
X138706D01*
X136206Y97259*
X165221Y55759D02*
X312721D01*
X335721Y32759*
X367221*
X377721Y43259*
Y68259*
X368721Y77259*
X357304*
X348804Y85759*
Y102259*
X345304Y105759*
X340221*
X197221Y163259D02*
X207721D01*
X214221Y156759*
Y140259*
X219721Y134759*
X241721*
X245221Y138259*
Y147259*
X253721Y155759*
X260221*
X197221Y193259D02*
X179633D01*
X171085Y201807*
Y232374*
X177585Y238874*
X266721*
X276721Y228874*
Y153759*
X268721Y145759*
X260221*
X197221Y203259D02*
Y219956D01*
X200039Y222774*
X197221Y203259D02*
X204721D01*
X207221Y200759*
Y175759*
X204221Y172759*
X197721*
X197221Y173259*
X201221Y100759D02*
X197126D01*
X193799Y104086*
Y120935*
X194173Y124180*
X211221Y110759D02*
Y125677D01*
X214841Y129296*
X239477*
X247839Y120935*
Y94976*
X255327Y87487*
X264937*
X269055Y91606*
Y106832*
X273049Y110826*
X306746*
X320724Y124804*
X339266*
X340221Y125759*
X227221Y143259D02*
X236721D01*
X227221Y153259D02*
X233721D01*
X246221Y165759*
X260221*
X227221Y163259D02*
X218721D01*
X215221Y166759*
Y191259*
X217721Y193759*
X226721*
X227221Y193259*
Y173259D02*
X238221D01*
X238721Y172759*
X231221Y110759D02*
X237422D01*
X240600Y107581*
Y88486*
X248338Y80748*
X269055*
X274921Y86614*
Y89859*
X279414Y94352*
X296387*
X298883Y96848*
X260221Y125759D02*
X270927D01*
Y126800*
X260221Y175759D02*
X247221D01*
X239221Y183759*
X227721*
X227221Y183259*
X260221Y185759D02*
X247221D01*
X239221Y193759*
X227721*
X227221Y193259*
X276169Y137284D02*
X269083D01*
X267557Y135759*
X260221*
X277542Y103759D02*
X319721D01*
X331721Y115759*
X340221*
X298883Y118688D02*
X307994Y127799D01*
Y173477*
X319850Y185333*
X339773*
X340199Y185759*
X340221*
Y95759D02*
X313735D01*
X283997Y66021*
X189306*
X177075Y78252*
Y133914*
X171459Y139530*
Y168022*
X167221Y172259*
Y172759*
X340221Y195759D02*
X331764D01*
X327213Y200309*
Y235005*
X327338Y235130*
X356417Y92854D02*
Y97347D01*
X359275Y100205*
X359221Y100259*
Y107932*
X357894Y109259*
X367221Y91759D02*
Y92259D01*
X359275Y100205*
X369221Y127963D02*
Y110151D01*
X359275Y100205*
X0Y0D02*
M02*
